<?xml version="1.0" standalone="no"?>
<!DOCTYPE svg PUBLIC "-//W3C//DTD SVG 20010904//EN"
 "http://www.w3.org/TR/2001/REC-SVG-20010904/DTD/svg10.dtd">
<svg version="1.0" xmlns="http://www.w3.org/2000/svg"
 width="400.000000pt" height="600.000000pt" viewBox="0 0 400.000000 600.000000"
 preserveAspectRatio="xMidYMid meet">
<g transform="translate(0.000000,600.000000) scale(0.100000,-0.100000)"
fill="#000000" stroke="none">
<path d="M3309 4503 c-13 -16 -12 -17 4 -4 9 7 17 15 17 17 0 8 -8 3 -21 -13z"/>
<path d="M3272 4470 c-7 -11 -17 -20 -23 -20 -6 0 -16 -6 -24 -12 -47 -46
-181 -165 -197 -176 -10 -7 -18 -18 -18 -24 0 -20 -34 -36 -66 -31 -18 3 -34
0 -38 -6 -5 -7 8 -11 41 -11 43 0 53 5 98 46 162 149 251 241 244 248 -3 3
-10 -4 -17 -14z"/>
<path d="M2596 4368 c-117 -113 -122 -118 -136 -118 -17 0 -60 -31 -60 -44 0
-14 -18 -38 -78 -108 -24 -28 -41 -53 -37 -56 8 -8 98 82 142 141 19 26 40 47
47 47 15 0 232 218 224 226 -4 3 -50 -36 -102 -88z"/>
<path d="M3168 4315 c-128 -125 -135 -135 -108 -135 17 0 30 4 30 9 0 5 38 47
85 95 47 47 85 89 85 93 0 4 12 19 25 32 21 19 33 42 23 41 -2 0 -65 -61 -140
-135z"/>
<path d="M2610 4318 c-65 -68 -128 -132 -139 -143 -132 -127 -158 -158 -153
-177 3 -13 1 -19 -5 -15 -6 4 -14 -4 -17 -18 -3 -13 -20 -37 -38 -54 -17 -16
-32 -39 -33 -52 -2 -21 -1 -21 12 -4 7 11 13 23 13 28 0 4 5 5 10 2 6 -3 10 1
10 9 0 8 6 19 13 23 8 4 33 35 57 68 48 66 141 167 147 161 5 -4 -196 -273
-231 -311 -12 -12 -39 -45 -61 -74 -54 -70 -77 -99 -97 -124 -10 -11 -18 -24
-18 -29 0 -26 -35 2 -86 70 -32 42 -62 82 -67 87 -43 50 -247 333 -247 343 0
9 9 12 30 8 17 -2 30 0 30 5 0 5 -11 9 -24 9 -12 0 -37 5 -55 11 -59 21 -73
43 225 -358 79 -105 149 -201 156 -212 7 -12 15 -21 18 -21 6 0 97 122 406
542 l49 68 150 1 c83 1 161 4 175 8 14 4 -37 5 -113 3 -95 -3 -142 -1 -150 7
-8 8 13 11 84 11 93 0 139 6 139 19 0 3 -55 3 -122 0 -68 -3 -127 -2 -131 2
-5 4 34 50 86 104 86 87 117 125 101 125 -3 0 -59 -55 -124 -122z m-55 -138
c-3 -5 -13 -10 -21 -10 -8 0 -14 5 -14 10 0 6 9 10 21 10 11 0 17 -4 14 -10z
m-195 -144 c0 -2 -8 -10 -17 -17 -16 -13 -17 -12 -4 4 13 16 21 21 21 13z"/>
<path d="M918 4399 c-22 -12 -12 -39 13 -39 12 0 19 7 19 19 0 25 -11 32 -32
20z m22 -19 c0 -5 -4 -10 -10 -10 -5 0 -10 5 -10 10 0 6 5 10 10 10 6 0 10 -4
10 -10z"/>
<path d="M1050 4355 c-25 -30 10 -61 38 -33 7 7 8 17 1 30 -12 22 -23 23 -39
3z m30 -15 c0 -5 -4 -10 -10 -10 -5 0 -10 5 -10 10 0 6 5 10 10 10 6 0 10 -4
10 -10z"/>
<path d="M1741 4356 c-9 -11 -8 -15 5 -20 20 -8 39 7 30 23 -10 15 -21 14 -35
-3z m29 -6 c0 -5 -4 -10 -10 -10 -5 0 -10 5 -10 10 0 6 5 10 10 10 6 0 10 -4
10 -10z"/>
<path d="M1248 4346 c-15 -11 -16 -15 -3 -32 13 -17 15 -18 30 -3 9 9 13 23 9
32 -7 20 -13 21 -36 3z m22 -16 c0 -5 -4 -10 -10 -10 -5 0 -10 5 -10 10 0 6 5
10 10 10 6 0 10 -4 10 -10z"/>
<path d="M2010 4338 c0 -11 8 -18 20 -18 12 0 20 7 20 18 0 14 -2 15 -10 2 -9
-13 -11 -13 -20 0 -8 13 -10 12 -10 -2z"/>
<path d="M3513 4334 c-3 -8 2 -23 11 -32 14 -15 18 -15 31 -1 9 9 13 23 9 32
-8 21 -43 22 -51 1z m37 -9 c0 -8 -4 -15 -10 -15 -5 0 -10 7 -10 15 0 8 5 15
10 15 6 0 10 -7 10 -15z"/>
<path d="M856 4315 c4 -8 8 -15 10 -15 2 0 4 7 4 15 0 8 -4 15 -10 15 -5 0 -7
-7 -4 -15z"/>
<path d="M586 4304 c-21 -20 -20 -27 4 -49 20 -18 21 -18 42 3 21 21 21 22 3
42 -22 24 -29 25 -49 4z m39 -13 c7 -12 -12 -24 -25 -16 -11 7 -4 25 10 25 5
0 11 -4 15 -9z"/>
<path d="M1656 4287 c-15 -11 -16 -18 -8 -34 16 -29 -13 -53 -64 -54 -21 0
-33 -3 -26 -6 6 -2 12 -8 12 -12 0 -10 -501 -12 -535 -2 -21 6 29 10 162 10
105 1 194 4 196 9 3 4 -86 9 -196 11 -111 1 -205 5 -209 8 -5 2 -8 -1 -8 -7 0
-6 -5 -8 -12 -4 -14 9 -243 8 -258 -1 -6 -4 -8 -15 -5 -26 4 -12 2 -19 -7 -20
-7 0 -2 -5 12 -10 14 -6 49 -43 78 -82 29 -40 73 -94 98 -122 25 -27 64 -75
87 -105 46 -61 107 -126 107 -115 0 4 -16 25 -36 47 -19 22 -33 43 -29 46 4 4
20 -9 37 -28 16 -19 37 -44 47 -55 44 -52 81 -104 81 -114 0 -6 19 -30 43 -54
24 -23 66 -77 95 -119 28 -42 56 -79 62 -83 5 -3 8 -18 5 -33 -3 -17 -3 -21 2
-10 9 19 45 -25 216 -260 l77 -106 2 -170 c1 -94 3 -298 3 -453 0 -155 3 -285
8 -289 4 -4 7 203 7 460 l0 467 -201 267 c-111 147 -225 292 -254 322 -29 30
-55 63 -57 72 -1 9 -88 131 -193 271 -174 234 -193 255 -221 256 -16 1 -39 8
-50 16 -17 13 -6 14 109 15 137 0 178 -17 55 -23 -40 -1 106 -3 325 -4 319 0
397 2 397 13 0 11 6 12 45 4 6 -1 27 -2 48 -1 43 1 51 21 8 21 -35 0 -48 31
-19 49 15 9 16 15 8 31 -13 24 -20 25 -44 7z m34 -17 c0 -5 -7 -10 -15 -10 -8
0 -15 5 -15 10 0 6 7 10 15 10 8 0 15 -4 15 -10z m-20 -60 c0 -5 -4 -10 -10
-10 -5 0 -10 5 -10 10 0 6 5 10 10 10 6 0 10 -4 10 -10z m-670 -30 c0 -5 -4
-10 -9 -10 -6 0 -13 5 -16 10 -3 6 1 10 9 10 9 0 16 -4 16 -10z m-182 -66 c41
-50 88 -115 113 -159 13 -22 38 -59 56 -82 19 -23 30 -44 24 -47 -5 -4 -18 5
-28 20 -24 35 -95 127 -171 223 -52 66 -59 80 -41 78 11 -1 33 -16 47 -33z"/>
<path d="M1123 4283 c-21 -8 -15 -41 8 -48 13 -4 27 -1 38 9 10 9 24 16 32 16
8 1 -4 7 -26 15 -22 8 -40 14 -40 14 0 0 -6 -3 -12 -6z m27 -29 c0 -8 -4 -12
-10 -9 -5 3 -10 10 -10 16 0 5 5 9 10 9 6 0 10 -7 10 -16z"/>
<path d="M1284 4269 c-3 -6 1 -18 10 -27 9 -9 16 -11 16 -5 0 6 -6 13 -12 16
-7 2 -10 7 -7 11 4 4 13 0 22 -8 18 -18 32 -9 16 11 -14 16 -35 17 -45 2z"/>
<path d="M531 4256 c-15 -18 -3 -46 19 -46 10 0 20 -5 22 -12 3 -7 7 -5 11 6
5 11 3 15 -5 10 -8 -5 -9 -2 -5 11 7 17 -7 45 -23 45 -4 0 -13 -6 -19 -14z
m31 -21 c0 -5 -5 -11 -11 -13 -6 -2 -11 4 -11 13 0 9 5 15 11 13 6 -2 11 -8
11 -13z"/>
<path d="M3435 4250 c-8 -14 3 -30 21 -30 8 0 14 9 14 20 0 21 -24 28 -35 10z
m25 -10 c0 -5 -4 -10 -10 -10 -5 0 -10 5 -10 10 0 6 5 10 10 10 6 0 10 -4 10
-10z"/>
<path d="M462 4238 c-7 -7 -12 -20 -12 -31 0 -14 6 -18 27 -15 33 4 42 32 15
47 -13 7 -22 7 -30 -1z m28 -23 c0 -8 -4 -15 -9 -15 -13 0 -22 16 -14 24 11
11 23 6 23 -9z"/>
<path d="M2850 4228 c0 -4 4 -8 9 -8 6 0 12 4 15 8 3 5 -1 9 -9 9 -8 0 -15 -4
-15 -9z"/>
<path d="M3210 4212 c-25 -2 -49 -7 -54 -13 -6 -5 37 -9 114 -9 68 0 120 3
116 7 -10 10 -118 19 -176 15z"/>
<path d="M3108 4193 c6 -2 18 -2 25 0 6 3 1 5 -13 5 -14 0 -19 -2 -12 -5z"/>
<path d="M3140 4170 c0 -5 7 -10 15 -10 8 0 15 5 15 10 0 6 -7 10 -15 10 -8 0
-15 -4 -15 -10z"/>
<path d="M3336 4130 c-25 -28 -46 -53 -46 -56 0 -9 -41 -59 -46 -56 -13 7 -24
0 -24 -16 0 -11 -9 -27 -20 -37 -11 -10 -20 -23 -20 -28 0 -11 -30 -36 -44
-37 -5 0 1 9 14 20 13 11 20 20 15 20 -4 0 1 12 10 28 l17 27 -20 -20 c-11
-11 -127 -159 -258 -330 -285 -372 -513 -663 -525 -671 -5 -3 -9 -85 -9 -182
l0 -177 117 117 c64 65 114 121 110 124 -7 7 -25 -7 -69 -53 -17 -18 -35 -30
-39 -27 -5 3 -9 -1 -9 -8 0 -16 -69 -72 -78 -64 -3 4 -5 61 -4 128 l3 122 87
113 c48 62 107 139 132 171 25 32 72 94 105 138 32 43 76 97 96 119 20 22 54
63 75 91 22 28 62 70 89 94 97 83 225 210 225 224 0 8 5 18 12 22 7 4 8 3 4
-4 -4 -7 -3 -12 3 -12 6 0 15 10 22 21 9 17 8 20 -3 13 -11 -6 -11 -5 1 9 7 9
17 15 21 12 12 -7 80 47 153 123 92 96 85 109 -11 20 -48 -44 -124 -99 -129
-94 -9 9 19 46 29 40 6 -4 9 -3 5 2 -3 5 12 35 34 67 22 31 35 57 31 57 -5 0
-30 -23 -56 -50z m-202 -281 c-10 -4 -15 -8 -11 -8 4 -1 -6 -15 -22 -33 -17
-18 -33 -29 -37 -26 -3 4 0 14 9 22 8 8 17 12 21 9 3 -4 6 0 6 7 0 20 31 51
43 43 6 -4 3 -10 -9 -14z"/>
<path d="M3443 4063 c-61 -60 -117 -121 -124 -137 -8 -17 -43 -50 -81 -75 -85
-59 -222 -205 -148 -159 11 7 20 16 20 21 0 4 5 5 11 1 7 -4 -10 -28 -43 -63
-111 -115 -369 -431 -352 -431 8 0 39 37 85 103 22 31 44 57 49 57 6 0 10 6
10 14 0 8 3 16 8 18 4 2 42 42 85 90 68 76 81 86 96 76 37 -23 77 18 48 50
-21 23 0 52 36 52 34 0 42 15 23 42 -18 25 -5 61 19 52 10 -4 18 3 25 20 5 14
14 27 20 27 11 2 25 5 38 9 4 1 10 2 14 1 4 0 5 6 2 14 -5 11 -2 13 10 9 9 -3
16 -1 16 6 0 6 5 8 12 4 6 -4 8 -3 5 3 -9 14 15 63 31 63 6 0 12 4 12 10 0 11
27 44 85 104 42 44 109 126 103 126 -2 0 -54 -48 -115 -107z m-243 -273 c0 -5
-5 -10 -11 -10 -5 0 -7 5 -4 10 3 6 8 10 11 10 2 0 4 -4 4 -10z m-40 -91 c0
-5 -4 -9 -10 -9 -5 0 -10 7 -10 16 0 8 5 12 10 9 6 -3 10 -10 10 -16z m-67
-94 c1 -5 -6 -11 -15 -13 -11 -2 -18 3 -18 13 0 17 30 18 33 0z"/>
<path d="M1791 4084 c69 -93 149 -194 154 -194 9 0 5 9 -12 25 -9 10 -47 58
-85 109 l-68 91 33 6 c27 5 28 7 7 8 -14 1 -36 4 -49 8 -22 6 -20 1 20 -53z"/>
<path d="M912 4073 c146 -197 320 -423 326 -423 2 0 0 6 -5 13 -6 6 -56 75
-113 152 -57 77 -113 151 -125 165 -31 35 -63 86 -47 76 7 -4 43 -49 81 -99
39 -51 89 -117 113 -147 24 -31 90 -119 148 -195 58 -77 189 -250 291 -385
l185 -245 2 -455 c1 -306 6 -456 13 -459 5 -1 2 -9 -7 -15 -12 -9 -14 -15 -6
-20 7 -4 12 -2 12 4 0 6 5 8 10 5 6 -4 8 -10 6 -14 -3 -4 0 -13 5 -21 7 -10 9
10 8 65 -3 179 1 468 7 462 4 -3 10 -70 14 -149 5 -113 7 -63 8 235 l2 378
-26 35 c-14 18 -31 31 -37 27 -6 -3 -7 -1 -3 5 6 10 -29 33 -56 36 -3 1 -10 5
-15 10 -5 5 -3 6 5 2 23 -13 12 7 -31 58 -24 28 -56 69 -72 91 -21 30 -14 25
28 -20 31 -33 57 -56 57 -51 0 5 -82 118 -182 250 -100 133 -240 319 -312 414
-118 157 -164 208 -136 150 11 -22 10 -22 -4 -4 -9 11 -16 23 -16 28 0 4 -5 8
-11 8 -6 0 -7 -6 -2 -12 9 -15 -43 16 -74 45 -35 32 -17 38 34 12 45 -24 53
-25 277 -27 l231 -2 -215 -6 -215 -6 232 -2 232 -2 129 -172 c70 -95 190 -257
266 -360 l138 -187 64 89 c69 96 87 131 78 155 -4 8 -1 15 6 15 6 0 8 -5 4
-12 -5 -9 -2 -9 9 1 9 7 17 17 17 22 0 4 16 25 36 46 19 21 42 51 50 66 8 15
19 25 23 22 5 -2 15 3 22 13 13 15 12 16 -3 3 -40 -30 -18 7 90 154 40 55 84
115 98 133 l25 32 143 0 c139 0 143 1 166 25 l23 25 -171 -7 c-149 -5 -174 -4
-190 10 -16 15 -32 -4 -252 -299 -129 -173 -237 -314 -240 -313 -5 0 -155 202
-375 505 -85 116 -108 139 -117 113 -5 -14 -493 -22 -563 -9 -27 4 -69 11 -93
14 l-43 6 43 -57z m1592 -30 c-27 -38 -120 -167 -209 -288 -88 -121 -177 -244
-198 -272 -35 -50 -38 -68 -6 -41 7 7 4 2 -8 -11 -19 -21 -24 -23 -39 -10 -15
13 -16 11 -10 -11 l7 -25 -17 22 c-9 12 -69 95 -135 185 -65 90 -123 168 -128
174 -9 11 -80 106 -162 217 -40 53 -56 67 -77 68 l-27 0 25 10 c22 9 28 7 47
-18 33 -42 129 -169 182 -241 25 -34 48 -57 50 -51 2 8 6 7 12 -2 4 -7 11 -10
15 -6 4 3 -6 23 -22 44 -70 91 -214 297 -214 305 0 13 36 -31 103 -127 94
-133 327 -449 346 -468 31 -32 34 -29 234 258 126 180 259 355 269 355 5 0
-12 -30 -38 -67z m-1413 -80 c13 -16 12 -17 -3 -4 -10 7 -18 15 -18 17 0 8 8
3 21 -13z m30 -40 c13 -16 12 -17 -3 -4 -10 7 -18 15 -18 17 0 8 8 3 21 -13z
m93 -122 c45 -61 48 -78 3 -19 -39 51 -50 68 -43 68 2 0 20 -22 40 -49z m157
-208 c92 -125 96 -131 82 -118 -6 6 -39 46 -72 90 -33 44 -64 85 -69 90 -14
17 -23 35 -18 35 3 0 38 -44 77 -97z m859 13 c0 -3 -4 -8 -10 -11 -5 -3 -10
-1 -10 4 0 6 5 11 10 11 6 0 10 -2 10 -4z m-65 -116 c-15 -22 -34 -45 -42 -52
-8 -7 2 13 24 44 21 31 40 54 42 52 2 -2 -8 -22 -24 -44z m-675 -55 c13 -14
19 -25 14 -25 -8 1 -50 50 -41 50 2 0 14 -11 27 -25z m40 -55 c6 -11 8 -20 6
-20 -3 0 -10 9 -16 20 -6 11 -8 20 -6 20 3 0 10 -9 16 -20z m538 -10 c-7 -10
-14 -17 -17 -15 -4 4 18 35 25 35 2 0 -1 -9 -8 -20z m-288 -337 c0 -10 -4 -14
-8 -8 -4 6 -11 13 -16 18 -5 4 -2 7 7 7 10 0 17 -8 17 -17z m37 -155 c-3 -7
-5 -2 -5 12 0 14 2 19 5 13 2 -7 2 -19 0 -25z m0 -90 c-3 -7 -5 -2 -5 12 0 14
2 19 5 13 2 -7 2 -19 0 -25z m0 -70 c-2 -13 -4 -5 -4 17 -1 22 1 32 4 23 2
-10 2 -28 0 -40z m0 -85 c-3 -10 -5 -2 -5 17 0 19 2 27 5 18 2 -10 2 -26 0
-35z"/>
<path d="M1810 3723 c8 -12 18 -19 24 -16 5 4 6 1 1 -6 -4 -8 3 -23 17 -39 14
-15 57 -73 97 -129 51 -73 76 -101 87 -96 18 7 18 7 -104 176 -85 119 -102
138 -102 116 0 -8 -5 -7 -17 2 -15 13 -15 12 -3 -8z m78 -78 c-3 -3 -13 7 -23
22 l-17 28 23 -22 c12 -12 20 -25 17 -28z m34 -35 c6 0 9 -3 6 -6 -4 -3 0 -13
8 -22 27 -30 94 -121 94 -127 0 -15 -18 -1 -40 33 -13 20 -39 57 -57 81 -18
24 -32 51 -32 60 1 13 2 13 6 -1 2 -10 9 -18 15 -18z"/>
<path d="M3179 4115 c-6 -6 -61 -10 -129 -10 -110 0 -121 -2 -142 -22 l-22
-23 91 0 c51 0 94 -4 97 -8 8 -13 -61 -110 -164 -232 -38 -45 -8 3 62 98 38
52 68 96 66 97 -2 2 -91 -111 -198 -252 -107 -140 -284 -370 -392 -511 l-198
-256 2 -260 c1 -164 4 -226 7 -166 6 89 7 92 14 48 4 -26 5 -64 2 -85 l-6 -38
31 33 c18 20 29 40 26 49 -3 8 -6 80 -6 160 0 81 -2 144 -5 141 -6 -6 -17
-125 -16 -167 1 -14 -2 -22 -5 -18 -3 3 -6 38 -5 79 0 40 1 106 1 146 0 39 5
72 10 72 5 0 7 -8 4 -17 -5 -17 -5 -17 6 0 6 9 9 21 5 26 -5 10 12 25 30 26 6
1 9 6 8 13 -2 7 2 11 8 9 6 -1 14 4 16 11 3 8 -1 10 -13 5 -12 -4 -15 -3 -10
6 5 7 14 10 21 7 19 -7 47 28 39 48 -5 13 -2 17 11 14 10 -2 20 3 23 11 3 9 0
11 -8 6 -9 -5 -11 -4 -6 4 4 6 11 9 16 6 9 -6 32 19 29 31 -4 17 14 46 21 34
8 -13 154 172 591 748 63 83 106 131 114 128 8 -3 19 2 25 10 10 12 8 14 -14
12 -15 -1 -31 -7 -37 -13z m-86 -32 c-7 -2 -21 -2 -30 0 -10 3 -4 5 12 5 17 0
24 -2 18 -5z m42 -23 c-18 -19 -31 -26 -34 -19 -2 7 7 20 20 30 38 29 46 22
14 -11z m-269 -298 c-17 -16 -18 -16 -5 5 7 12 15 20 18 17 3 -2 -3 -12 -13
-22z m-177 -241 c-31 -40 -48 -54 -33 -28 16 26 58 76 62 72 2 -2 -11 -22 -29
-44z m-57 -73 c-7 -7 -12 -8 -12 -2 0 6 3 14 7 17 3 4 9 5 12 2 2 -3 -1 -11
-7 -17z m-22 -28 c0 -5 -5 -10 -11 -10 -5 0 -7 5 -4 10 3 6 8 10 11 10 2 0 4
-4 4 -10z m-100 -140 c0 -5 -5 -10 -11 -10 -5 0 -7 5 -4 10 3 6 8 10 11 10 2
0 4 -4 4 -10z m-100 -124 c0 -2 -8 -10 -17 -17 -16 -13 -17 -12 -4 4 13 16 21
21 21 13z m-143 -323 c-3 -10 -5 -4 -5 12 0 17 2 24 5 18 2 -7 2 -21 0 -30z
m0 -130 c-3 -10 -5 -2 -5 17 0 19 2 27 5 18 2 -10 2 -26 0 -35z m33 -39 c0 -8
-4 -12 -10 -9 -5 3 -10 10 -10 16 0 5 5 9 10 9 6 0 10 -7 10 -16z"/>
<path d="M677 4053 c-7 -11 42 -69 151 -182 55 -57 62 -45 10 13 -10 11 -18
26 -18 33 0 7 -5 13 -10 13 -6 0 -9 10 -7 23 2 12 2 16 0 10 -3 -7 -8 -13 -13
-13 -5 0 -6 7 -3 17 4 11 3 14 -5 9 -7 -4 -17 -4 -23 0 -8 4 -7 9 2 15 12 7
11 9 -1 9 -11 0 -8 6 8 18 l23 18 -23 0 c-13 0 -27 -6 -33 -13 -11 -14 -38 1
-47 27 -3 9 -7 10 -11 3z"/>
<path d="M2703 4043 c26 -2 67 -2 90 0 23 2 2 3 -48 3 -49 0 -68 -1 -42 -3z"/>
<path d="M2898 4043 c23 -2 61 -2 85 0 23 2 4 4 -43 4 -47 0 -66 -2 -42 -4z"/>
<path d="M3137 4008 c-90 -113 -193 -246 -292 -378 -60 -80 -152 -199 -204
-264 -53 -66 -145 -180 -204 -255 l-108 -136 2 -193 c1 -106 6 -195 10 -198 5
-3 9 82 9 188 l0 193 218 280 c120 154 302 393 406 530 104 138 193 256 199
263 5 6 7 12 4 12 -3 0 -21 -19 -40 -42z"/>
<path d="M2569 4013 c-32 -39 -44 -57 -32 -50 13 8 57 67 50 67 -2 0 -10 -8
-18 -17z"/>
<path d="M654 4004 c9 -8 16 -18 17 -22 0 -4 1 -18 3 -33 1 -22 56 -96 56 -76
0 7 28 -13 63 -46 14 -14 22 -16 30 -8 9 9 -4 27 -49 69 -33 32 -73 75 -88 95
-16 20 -33 37 -38 37 -5 0 -2 -7 6 -16z"/>
<path d="M1140 3996 c0 -6 443 -594 553 -734 27 -34 53 -60 58 -56 13 8 11 24
-3 24 -12 1 -55 55 -119 150 -26 39 -53 75 -127 167 -24 29 -39 53 -35 53 4 0
0 5 -10 11 -10 6 -16 19 -13 32 2 12 0 31 -5 42 -6 15 -8 12 -5 -13 4 -33 4
-33 -15 -16 -10 9 -19 23 -19 31 0 7 -4 13 -9 13 -5 0 -35 37 -68 81 -32 45
-64 88 -71 95 -19 20 -23 52 -6 58 8 3 14 0 14 -7 0 -8 4 -6 10 3 14 22 12 30
-7 23 -12 -5 -14 -3 -8 8 7 11 5 11 -11 -1 -10 -8 -22 -19 -25 -23 -3 -5 -13
3 -23 17 -16 25 -11 33 19 26 6 -1 61 -2 123 -2 61 0 112 -4 112 -8 0 -10 26
-7 36 3 14 14 23 6 85 -80 34 -49 113 -155 174 -238 61 -82 139 -189 173 -236
33 -47 68 -92 76 -99 9 -7 16 -22 16 -33 0 -11 3 -17 7 -14 3 4 17 -3 30 -15
30 -28 43 -15 15 15 -11 12 -137 180 -280 372 l-259 350 -192 3 c-105 1 -191
1 -191 -2z"/>
<path d="M2090 3987 c-17 -13 -18 -22 -6 -49 11 -24 42 -28 60 -9 20 22 20 38
2 57 -18 17 -36 17 -56 1z m50 -28 c0 -12 -29 -24 -37 -16 -3 4 -3 13 0 21 6
16 37 11 37 -5z"/>
<path d="M2227 3953 c-28 -47 -76 -95 -87 -88 -5 3 -10 1 -10 -4 0 -6 8 -11
18 -11 11 0 37 26 65 65 26 36 43 65 39 65 -4 0 -15 -12 -25 -27z"/>
<path d="M1338 3943 c7 -3 16 -2 19 1 4 3 -2 6 -13 5 -11 0 -14 -3 -6 -6z"/>
<path d="M1380 3941 c0 -6 4 -13 10 -16 6 -3 7 1 4 9 -7 18 -14 21 -14 7z"/>
<path d="M2469 3883 c-23 -32 -54 -73 -67 -90 -13 -18 -22 -33 -19 -33 2 0 24
26 48 58 23 31 54 72 67 90 13 17 22 32 19 32 -2 0 -24 -26 -48 -57z"/>
<path d="M2874 3888 c-21 -29 -44 -57 -50 -63 -6 -5 -26 -32 -45 -58 -88 -124
-184 -251 -245 -322 -28 -33 -53 -65 -55 -71 -4 -12 -50 -69 -123 -153 -70
-81 -131 -161 -149 -198 -14 -27 -16 -63 -14 -232 1 -111 5 -201 10 -201 4 0
7 92 7 206 l0 205 53 67 c217 274 660 862 654 868 -2 3 -22 -19 -43 -48z"/>
<path d="M1315 3830 c-3 -5 1 -10 10 -10 9 0 13 5 10 10 -3 6 -8 10 -10 10 -2
0 -7 -4 -10 -10z"/>
<path d="M2015 3787 c10 -15 20 -25 23 -22 3 3 -5 16 -17 28 l-23 22 17 -28z"/>
<path d="M3275 3790 c-17 -19 -17 -22 -3 -36 10 -10 23 -14 37 -9 26 8 27 27
3 49 -18 15 -20 15 -37 -4z m35 -20 c0 -5 -7 -10 -15 -10 -8 0 -15 5 -15 10 0
6 7 10 15 10 8 0 15 -4 15 -10z"/>
<path d="M2099 3773 c-13 -16 -12 -17 4 -4 9 7 17 15 17 17 0 8 -8 3 -21 -13z"/>
<path d="M1375 3750 c3 -5 11 -10 16 -10 6 0 7 5 4 10 -3 6 -11 10 -16 10 -6
0 -7 -4 -4 -10z"/>
<path d="M3187 3726 c-7 -18 1 -26 25 -26 13 0 18 6 16 17 -4 22 -34 29 -41 9z
m33 -6 c0 -5 -4 -10 -10 -10 -5 0 -10 5 -10 10 0 6 5 10 10 10 6 0 10 -4 10
-10z"/>
<path d="M1170 3570 c0 -5 5 -10 11 -10 5 0 7 5 4 10 -3 6 -8 10 -11 10 -2 0
-4 -4 -4 -10z"/>
<path d="M1296 3570 c4 -8 47 -67 94 -130 48 -63 146 -195 218 -292 l132 -177
3 -433 2 -433 3 438 2 439 -72 95 c-40 53 -100 132 -133 177 -115 157 -264
346 -249 316z"/>
<path d="M1191 3545 c0 -5 6 -19 14 -29 15 -19 15 -19 15 3 0 12 -4 20 -9 17
-5 -4 -12 0 -14 6 -3 7 -6 9 -6 3z"/>
<path d="M3115 3534 c-20 -20 -19 -31 3 -43 22 -12 55 10 46 32 -8 23 -31 28
-49 11z m35 -19 c0 -8 -7 -15 -15 -15 -8 0 -15 7 -15 15 0 8 7 15 15 15 8 0
15 -7 15 -15z"/>
<path d="M1250 3469 c0 -5 5 -7 10 -4 6 3 10 8 10 11 0 2 -4 4 -10 4 -5 0 -10
-5 -10 -11z"/>
<path d="M1112 3454 c10 -10 20 -16 22 -13 3 3 -5 11 -17 18 -21 13 -21 12 -5
-5z"/>
<path d="M1175 3440 c10 -11 20 -20 23 -20 3 0 -3 9 -13 20 -10 11 -20 20 -23
20 -3 0 3 -9 13 -20z"/>
<path d="M3000 3441 c0 -6 4 -13 10 -16 6 -3 7 1 4 9 -7 18 -14 21 -14 7z"/>
<path d="M1140 3427 c0 -3 6 -12 13 -19 35 -37 127 -147 127 -151 0 -2 17 -22
38 -43 20 -22 61 -66 90 -99 48 -54 51 -56 23 -15 -59 89 -291 349 -291 327z"/>
<path d="M1020 3405 c-13 -16 -6 -35 14 -35 8 0 19 7 27 16 10 13 10 17 -2 25
-19 12 -25 11 -39 -6z m30 -10 c0 -8 -4 -15 -10 -15 -5 0 -10 7 -10 15 0 8 5
15 10 15 6 0 10 -7 10 -15z"/>
<path d="M2944 3398 c-7 -11 22 -39 40 -37 6 0 1 5 -11 11 -26 12 -32 34 -7
24 8 -3 12 -2 9 4 -8 13 -22 13 -31 -2z"/>
<path d="M1327 3261 c60 -71 114 -132 121 -135 20 -9 7 10 -76 108 -100 116
-136 156 -144 156 -4 0 40 -58 99 -129z"/>
<path d="M1074 3357 c-6 -17 2 -37 16 -37 15 0 19 29 5 40 -12 10 -16 9 -21
-3z m26 -11 c0 -3 -4 -8 -10 -11 -5 -3 -10 -1 -10 4 0 6 5 11 10 11 6 0 10 -2
10 -4z"/>
<path d="M2170 3345 c-7 -9 -10 -18 -7 -21 3 -3 10 4 17 15 13 25 8 27 -10 6z"/>
<path d="M2106 3317 c-30 -40 -35 -64 -5 -27 24 31 41 60 35 60 -3 0 -16 -15
-30 -33z"/>
<path d="M2978 3303 c-25 -27 -49 -57 -52 -69 -3 -11 -26 -33 -50 -48 -25 -16
-53 -38 -63 -49 -17 -20 -16 -20 20 2 20 12 37 19 37 16 0 -4 11 0 25 9 14 9
31 14 38 10 7 -4 9 -4 5 0 -8 10 29 94 54 120 19 21 42 56 35 56 -1 0 -23 -21
-49 -47z"/>
<path d="M2950 3331 c0 -5 -13 -14 -30 -20 -16 -5 -30 -8 -30 -5 0 10 -70 -72
-76 -88 -3 -10 -10 -18 -16 -18 -6 0 -8 -3 -5 -7 4 -3 -1 -16 -10 -27 -18 -20
-18 -20 7 -5 14 9 40 36 59 60 18 24 41 47 50 50 23 9 77 69 63 69 -7 0 -12
-4 -12 -9z"/>
<path d="M2143 3305 c0 -8 4 -12 9 -9 5 3 6 10 3 15 -9 13 -12 11 -12 -6z"/>
<path d="M1409 3272 c6 -12 16 -24 22 -28 8 -4 8 -1 0 14 -6 12 -16 24 -22 28
-8 4 -8 1 0 -14z"/>
<path d="M1151 3266 c-1 -13 -6 -16 -18 -11 -15 5 -16 4 -5 -6 15 -16 37 2 29
23 -4 8 -6 6 -6 -6z"/>
<path d="M2125 3270 c-3 -5 -1 -10 4 -10 6 0 11 5 11 10 0 6 -2 10 -4 10 -3 0
-8 -4 -11 -10z"/>
<path d="M1209 3231 c8 -5 10 -14 6 -21 -5 -9 -4 -11 3 -6 18 11 14 36 -5 36
-14 0 -15 -2 -4 -9z"/>
<path d="M1460 3194 c14 -17 27 -26 29 -20 2 5 -1 12 -8 14 -6 2 -8 9 -4 15 3
7 3 9 -2 5 -4 -4 -15 -2 -24 5 -9 6 -4 -2 9 -19z"/>
<path d="M2671 3155 c-44 -60 -56 -85 -18 -38 32 39 69 93 64 93 -2 0 -23 -25
-46 -55z"/>
<path d="M1781 3173 c13 -15 26 -30 30 -33 12 -12 50 -80 44 -80 -4 0 0 -11 9
-25 14 -21 16 -67 17 -332 1 -173 5 -286 9 -258 4 28 5 65 2 83 -4 27 -2 31
12 26 14 -5 15 -2 8 17 -5 13 -8 92 -7 176 1 162 -14 312 -34 337 -7 8 -9 21
-5 28 4 7 4 10 0 6 -9 -7 -56 31 -56 45 0 11 -30 36 -44 37 -5 0 1 -12 15 -27z"/>
<path d="M1180 3131 c0 -12 4 -21 10 -21 5 0 7 7 4 15 -7 17 11 21 19 5 3 -6
4 -5 3 2 -5 23 -36 22 -36 -1z"/>
<path d="M2735 3045 c-25 -34 -28 -65 -5 -65 5 0 15 9 22 20 7 11 19 20 26 20
19 0 26 28 12 45 -18 22 -25 19 -55 -20z m45 -1 c0 -8 -4 -12 -10 -9 -5 3 -10
10 -10 16 0 5 5 9 10 9 6 0 10 -7 10 -16z m-30 -34 c0 -5 -7 -10 -15 -10 -8 0
-15 5 -15 10 0 6 7 10 15 10 8 0 15 -4 15 -10z"/>
<path d="M2616 3016 c3 -9 2 -16 -4 -16 -6 0 -13 6 -15 13 -4 9 -6 9 -6 0 -1
-17 17 -25 35 -15 14 8 14 10 -1 22 -13 11 -15 10 -9 -4z"/>
<path d="M1381 3006 c-14 -17 -7 -36 14 -36 22 0 29 20 13 36 -13 13 -16 13
-27 0z m29 -16 c0 -5 -4 -10 -10 -10 -5 0 -10 5 -10 10 0 6 5 10 10 10 6 0 10
-4 10 -10z"/>
<path d="M1266 2994 c-19 -19 -20 -26 -4 -42 17 -17 55 -15 62 4 8 20 -10 54
-29 54 -7 0 -21 -7 -29 -16z m44 -19 c0 -8 -6 -15 -14 -15 -17 0 -28 14 -19
24 12 12 33 6 33 -9z"/>
<path d="M1500 3006 c0 -2 8 -10 18 -17 15 -13 16 -12 3 4 -13 16 -21 21 -21
13z"/>
<path d="M2582 2935 c-6 -14 -9 -32 -5 -40 9 -26 37 -12 44 23 5 27 4 31 -7
21 -8 -7 -12 -20 -9 -30 4 -11 2 -19 -3 -19 -17 0 -21 12 -11 37 13 34 5 40
-9 8z"/>
<path d="M2312 2910 c0 -14 2 -19 5 -12 2 6 2 18 0 25 -3 6 -5 1 -5 -13z"/>
<path d="M1580 2501 c0 -286 -3 -412 -11 -417 -12 -7 -25 -8 -169 -19 -52 -3
-104 -8 -115 -10 -11 -3 -48 -7 -82 -9 -34 -3 -90 -10 -125 -15 -35 -6 -79
-13 -98 -15 -42 -6 -75 -13 -115 -25 -43 -13 -2 -13 55 0 87 20 327 50 498 61
l172 12 0 423 c0 233 -2 423 -5 423 -3 0 -5 -184 -5 -409z"/>
<path d="M2674 2861 c4 -6 2 -11 -3 -11 -16 0 -13 -26 5 -40 12 -11 18 -11 31
2 17 18 12 33 -19 49 -15 8 -19 8 -14 0z m26 -31 c0 -5 -4 -10 -10 -10 -5 0
-10 5 -10 10 0 6 5 10 10 10 6 0 10 -4 10 -10z"/>
<path d="M1933 2835 c0 -8 4 -12 9 -9 5 3 6 10 3 15 -9 13 -12 11 -12 -6z"/>
<path d="M2630 2820 c-9 -6 -10 -10 -3 -10 6 0 15 5 18 10 8 12 4 12 -15 0z"/>
<path d="M1930 2796 c0 -2 7 -7 16 -10 8 -3 12 -2 9 4 -6 10 -25 14 -25 6z"/>
<path d="M2594 2786 c-6 -6 -33 -32 -60 -57 -27 -25 -73 -71 -102 -103 l-53
-57 3 -105 3 -105 38 49 c43 57 47 71 12 48 l-25 -16 0 57 c0 64 7 76 119 196
56 59 77 71 66 37 -7 -22 20 -39 36 -23 9 9 -4 53 -16 53 -18 0 -19 1 -8 8 7
4 9 13 5 19 -5 8 -10 8 -18 -1z m36 -66 c0 -5 -4 -10 -10 -10 -5 0 -10 5 -10
10 0 6 5 10 10 10 6 0 10 -4 10 -10z"/>
<path d="M1380 2786 c0 -2 7 -7 16 -10 8 -3 12 -2 9 4 -6 10 -25 14 -25 6z"/>
<path d="M2696 2706 c-33 -25 -16 -86 25 -86 10 0 25 10 33 21 28 40 -21 94
-58 65z m48 -29 c16 -25 -16 -56 -38 -37 -19 15 -20 32 -4 48 15 15 28 11 42
-11z"/>
<path d="M1367 2682 c-10 -10 -17 -26 -17 -34 0 -9 -6 -18 -12 -21 -7 -3 2 -5
20 -4 18 0 35 -3 38 -6 11 -11 34 21 34 46 0 22 -16 37 -39 37 -4 0 -15 -8
-24 -18z m43 -22 c0 -21 -24 -28 -35 -10 -8 14 3 30 21 30 8 0 14 -9 14 -20z"/>
<path d="M1453 2610 c2 -8 10 -15 17 -15 7 0 15 7 17 15 4 13 3 13 -6 0 -10
-13 -12 -13 -22 0 -9 13 -10 13 -6 0z"/>
<path d="M2174 2565 c-3 -8 -4 -20 -2 -27 3 -7 7 -1 10 15 6 29 1 36 -8 12z"/>
<path d="M2490 2537 c0 -44 11 -60 25 -37 10 16 27 0 22 -21 -6 -21 1 -23 23
-9 11 7 11 10 2 10 -7 0 -10 5 -7 10 3 6 1 10 -4 10 -6 0 -11 7 -11 15 0 8 8
15 17 15 12 0 14 3 6 11 -8 8 -17 7 -35 -5 -23 -15 -24 -15 -26 11 -4 46 -12
38 -12 -10z"/>
<path d="M1470 2560 c-9 -6 -10 -10 -3 -10 6 0 15 5 18 10 8 12 4 12 -15 0z"/>
<path d="M2337 2532 c-5 -12 -12 -20 -16 -17 -18 10 -46 -39 -51 -88 l-5 -52
-146 -125 c-81 -69 -181 -154 -223 -189 -66 -56 -75 -67 -62 -79 12 -12 30 0
137 91 68 57 175 147 238 200 l114 95 0 68 -1 69 7 -70 c7 -66 6 -72 -18 -100
l-26 -30 33 31 33 30 -3 95 c-2 63 -6 87 -11 71z"/>
<path d="M1452 2508 c-28 -28 2 -67 37 -48 25 13 28 45 5 54 -22 8 -28 8 -42
-6z m38 -24 c0 -8 -7 -14 -15 -14 -15 0 -21 21 -9 33 10 9 24 -2 24 -19z"/>
<path d="M2570 2504 c0 -8 5 -12 10 -9 6 3 10 10 10 16 0 5 -4 9 -10 9 -5 0
-10 -7 -10 -16z"/>
<path d="M1934 2482 c4 -38 11 -49 19 -29 3 7 -1 24 -9 38 -13 24 -13 24 -10
-9z"/>
<path d="M1332 2464 c-16 -17 -15 -29 4 -44 12 -11 18 -11 30 2 16 15 11 43
-9 51 -7 2 -18 -2 -25 -9z m28 -24 c0 -5 -4 -10 -10 -10 -5 0 -10 5 -10 10 0
6 5 10 10 10 6 0 10 -4 10 -10z"/>
<path d="M2166 2465 c-9 -26 -7 -32 5 -12 6 10 9 21 6 23 -2 3 -7 -2 -11 -11z"/>
<path d="M2501 2441 c-10 -7 -14 -27 -12 -74 2 -58 0 -66 -23 -80 -13 -9 -31
-18 -38 -19 -7 -2 -16 -11 -21 -21 -4 -11 -16 -21 -27 -24 -11 -3 -17 -9 -14
-14 3 -5 0 -9 -5 -9 -6 0 -11 -6 -11 -13 0 -8 -12 -25 -27 -39 -53 -48 -108
-111 -88 -101 30 16 345 323 345 336 0 6 -15 -3 -33 -21 -18 -18 -36 -32 -39
-32 -10 0 -3 75 10 98 13 23 7 28 -17 13z"/>
<path d="M2252 2420 c0 -14 2 -19 5 -12 2 6 2 18 0 25 -3 6 -5 1 -5 -13z"/>
<path d="M2123 2388 c1 -7 -4 -12 -11 -10 -8 1 -11 -2 -7 -8 5 -8 13 -6 26 6
23 21 23 24 4 24 -8 0 -14 -6 -12 -12z"/>
<path d="M2431 2365 c-17 -20 -31 -40 -31 -45 0 -5 -24 -28 -52 -51 -91 -71
-328 -271 -402 -339 -39 -36 -87 -77 -106 -92 -23 -17 -29 -27 -19 -28 9 0 27
10 40 23 22 19 30 21 69 14 78 -15 350 -11 350 5 0 5 -17 9 -37 8 -102 -5
-164 0 -157 13 6 10 4 10 -7 0 -16 -16 -75 -17 -85 -2 -4 7 -9 8 -13 1 -4 -6
-15 -6 -31 0 -24 9 -24 9 28 59 30 29 57 47 64 43 6 -4 8 -3 5 3 -4 6 15 28
41 49 26 21 54 46 63 56 9 10 19 18 22 18 4 0 20 13 36 29 17 16 39 32 51 36
11 3 18 10 15 15 -5 8 10 17 29 18 5 0 13 7 18 16 5 9 13 16 18 16 16 0 60 42
54 52 -3 4 2 11 10 14 9 3 16 12 16 20 0 7 6 17 13 21 20 11 51 63 39 63 -5 0
-24 -16 -41 -35z"/>
<path d="M1437 2375 c-21 -15 -22 -38 -3 -54 20 -16 56 3 56 29 0 27 -31 42
-53 25z m33 -31 c0 -17 -22 -14 -28 4 -2 7 3 12 12 12 9 0 16 -7 16 -16z"/>
<path d="M2120 2284 c-69 -58 -134 -115 -145 -127 l-20 -21 20 15 c61 45 283
239 274 239 -3 0 -61 -48 -129 -106z"/>
<path d="M1892 2355 c0 -16 2 -22 5 -12 2 9 2 23 0 30 -3 6 -5 -1 -5 -18z"/>
<path d="M2580 2339 c-51 -46 -272 -263 -295 -290 -19 -23 5 -5 90 65 21 17
32 21 38 13 5 -8 7 -7 5 4 -2 9 31 51 74 95 76 78 133 144 126 144 -2 0 -19
-14 -38 -31z"/>
<path d="M2010 2282 c-25 -25 -34 -37 -20 -26 50 41 73 64 69 68 -2 2 -24 -17
-49 -42z"/>
<path d="M2153 2206 c-62 -51 -145 -124 -185 -161 l-73 -68 85 69 c101 81 290
245 290 250 0 7 -3 4 -117 -90z"/>
<path d="M1493 2274 c-7 -18 17 -38 31 -24 11 11 1 40 -14 40 -6 0 -13 -7 -17
-16z m27 -4 c0 -5 -4 -10 -10 -10 -5 0 -10 5 -10 10 0 6 5 10 10 10 6 0 10 -4
10 -10z"/>
<path d="M1368 2268 c-8 -20 20 -34 36 -18 8 8 6 9 -6 5 -11 -4 -17 -1 -20 12
-3 16 -4 16 -10 1z"/>
<path d="M1917 2259 c7 -7 15 -10 18 -7 3 3 -2 9 -12 12 -14 6 -15 5 -6 -5z"/>
<path d="M2140 2136 c-85 -73 -177 -154 -205 -180 l-50 -48 57 46 c31 25 59
46 63 46 6 0 113 96 249 222 93 87 43 49 -114 -86z"/>
<path d="M2557 2263 c-15 -14 -7 -53 11 -53 13 0 14 2 3 9 -8 5 -12 18 -8 30
5 22 4 25 -6 14z"/>
<path d="M1915 2219 c-10 -30 -1 -32 23 -6 21 22 21 23 2 24 -11 1 -22 -7 -25
-18z"/>
<path d="M2464 2138 c-4 -15 -1 -25 12 -35 16 -11 21 -10 39 7 20 21 20 21 1
36 -28 20 -44 18 -52 -8z m46 -14 c0 -9 -5 -14 -12 -12 -18 6 -21 28 -4 28 9
0 16 -7 16 -16z"/>
<path d="M2505 2060 c19 -8 153 -14 144 -6 -2 2 -40 6 -84 9 -50 4 -73 3 -60
-3z"/>
<path d="M1592 2051 c-8 -4 -46 -9 -85 -10 -40 -1 -132 -8 -205 -16 -74 -8
-140 -15 -148 -15 -8 0 -14 -8 -14 -17 -1 -16 -2 -16 -13 -2 -11 14 -27 13
-176 -17 -90 -18 -169 -38 -175 -45 -8 -9 -8 -10 0 -6 6 4 33 9 60 12 26 4 51
8 54 10 4 2 42 11 86 20 43 8 88 17 98 20 10 2 15 0 10 -4 -5 -4 -36 -14 -69
-21 -94 -20 -156 -40 -151 -49 3 -4 -6 -19 -19 -31 -29 -27 -32 -56 -9 -81 26
-29 8 -41 -34 -24 l-37 15 24 -20 c32 -27 186 -74 239 -73 54 2 56 -12 2 -15
-58 -4 -190 35 -255 73 -59 36 -76 31 -22 -6 17 -13 35 -27 38 -31 12 -17 151
-47 320 -68 563 -69 1154 -74 1724 -14 169 18 369 66 429 104 56 36 73 85 42
121 -23 26 -86 77 -98 79 -4 0 -13 2 -20 5 -109 34 -258 57 -316 50 -35 -5
-43 -4 -32 4 12 9 10 11 -10 11 -14 0 -94 6 -179 14 -85 9 -157 13 -162 11 -4
-3 -10 1 -12 7 -3 7 -6 -3 -6 -22 l-1 -35 58 -3 c86 -4 354 -50 395 -67 20 -8
46 -15 58 -15 26 0 97 -42 80 -48 -6 -2 -19 2 -27 9 -12 10 -15 10 -12 -2 4
-16 -60 -23 -78 -8 -6 5 -14 6 -17 2 -4 -3 -134 -8 -290 -9 -155 -1 -313 -7
-352 -13 -38 -6 -117 -11 -175 -12 -58 0 -127 -4 -155 -8 -27 -4 141 -6 375
-3 259 3 430 9 438 15 8 6 12 6 12 -2 0 -9 15 -10 58 -5 31 4 73 7 92 6 19 -1
61 -2 92 -2 31 0 59 -4 62 -9 13 -21 -67 -32 -225 -30 -90 0 -173 -2 -184 -6
-12 -4 -15 -3 -9 2 7 4 -160 8 -370 8 -277 1 -350 -1 -266 -7 63 -5 142 -13
175 -18 33 -6 88 -11 122 -12 34 0 60 -5 57 -9 -7 -11 0 -11 119 5 53 7 97 9
97 5 0 -5 46 -6 101 -3 72 4 99 3 95 -5 -4 -6 -19 -11 -34 -11 -21 0 -24 -2
-12 -10 12 -8 11 -10 -7 -11 -13 -1 -26 -2 -30 -3 -5 -2 -44 -6 -88 -10 -44
-4 -90 -9 -102 -11 -47 -7 -298 -17 -292 -11 3 3 23 9 45 14 23 5 -60 7 -207
4 -361 -7 -635 19 -796 74 -65 22 -82 24 -159 18 -83 -7 -97 -20 -26 -26 17
-1 28 -6 26 -10 -5 -8 5 -9 146 -13 93 -2 270 -33 270 -47 0 -5 -10 -6 -22 -4
-13 3 -70 8 -128 11 -58 3 -130 11 -162 17 -31 5 -62 8 -69 6 -7 -2 34 -12 91
-21 664 -107 1723 -44 1863 111 67 73 -157 149 -555 188 -38 3 -68 10 -68 14
0 9 21 7 235 -21 304 -40 463 -105 440 -178 -20 -63 -212 -119 -550 -158 -218
-26 -973 -25 -1190 1 -82 10 -168 19 -190 21 -22 1 -47 5 -55 8 -26 10 -171
37 -197 37 -13 0 -21 4 -18 10 3 6 0 11 -7 11 -21 3 -51 5 -75 7 -13 1 -23 7
-23 13 0 7 7 8 18 4 9 -4 26 -9 37 -12 l20 -4 -20 12 c-34 20 -65 52 -65 67 0
25 54 68 115 91 84 32 264 67 432 86 157 17 243 19 163 4 -25 -4 -111 -15
-192 -24 -304 -32 -468 -87 -468 -155 0 -29 46 -58 135 -85 100 -31 135 -32
44 -2 -47 15 -65 26 -61 36 2 8 0 11 -6 7 -18 -11 -74 5 -68 20 3 8 -2 14 -12
15 -9 0 -12 3 -5 5 7 3 10 11 7 18 -2 6 13 22 35 34 45 25 58 28 42 8 -15 -18
2 -16 37 3 13 7 38 13 55 13 32 1 62 20 50 32 -4 3 11 7 33 8 38 1 54 3 64 8
3 1 14 4 26 5 11 1 56 8 100 14 43 7 113 15 154 19 66 6 75 9 75 27 1 11 4 26
8 33 9 14 7 15 -11 3z m1419 -80 c107 -24 234 -73 265 -102 28 -27 31 -69 7
-91 -31 -27 -99 -57 -175 -77 -101 -28 -229 -53 -235 -47 -3 3 5 7 18 10 234
51 321 80 359 121 61 65 -28 122 -280 181 -52 12 -84 23 -70 23 14 0 64 -8
111 -18z m-1891 -51 c0 -5 -4 -10 -10 -10 -5 0 -10 5 -10 10 0 6 5 10 10 10 6
0 10 -4 10 -10z m2067 -36 c29 -14 33 -21 28 -42 -5 -19 -3 -23 9 -19 19 7 29
-18 12 -32 -7 -6 -29 -12 -49 -15 -35 -4 -36 -4 -25 20 6 13 17 24 25 24 21 0
15 11 -24 46 -41 36 -31 44 24 18z m-1967 -128 c0 -9 -30 -14 -35 -6 -4 6 3
10 14 10 12 0 21 -2 21 -4z m1725 -6 c-3 -5 -12 -10 -18 -10 -7 0 -6 4 3 10
19 12 23 12 15 0z m-1821 -68 c2 -4 -6 -9 -20 -10 -13 -1 -24 3 -24 8 0 12 37
14 44 2z m459 1 c-7 -2 -21 -2 -30 0 -10 3 -4 5 12 5 17 0 24 -2 18 -5z m630
-10 c-7 -2 -21 -2 -30 0 -10 3 -4 5 12 5 17 0 24 -2 18 -5z"/>
<path d="M2660 2052 c0 -5 37 -12 83 -15 45 -3 111 -8 147 -11 59 -5 61 -4 20
4 -25 5 -81 12 -125 15 -44 3 -90 8 -102 10 -13 3 -23 1 -23 -3z"/>
<path d="M1760 1963 c0 -35 2 -63 5 -63 12 0 74 63 69 71 -3 5 -12 2 -20 -6
-22 -21 -34 -19 -34 8 0 12 -5 29 -10 37 -7 11 -10 -3 -10 -47z"/>
<path d="M2365 2010 c-4 -6 0 -10 9 -10 8 0 17 -6 19 -12 4 -8 6 -7 6 3 1 19
-25 33 -34 19z"/>
<path d="M2978 2013 c12 -2 30 -2 40 0 9 3 -1 5 -23 4 -22 0 -30 -2 -17 -4z"/>
<path d="M3053 2003 c9 -2 23 -2 30 0 6 3 -1 5 -18 5 -16 0 -22 -2 -12 -5z"/>
<path d="M2293 1983 c19 -5 24 -23 5 -23 -6 0 -8 -3 -5 -6 9 -9 38 16 31 27
-3 5 -15 8 -27 8 -17 -1 -18 -2 -4 -6z"/>
<path d="M2355 1980 c3 -5 11 -10 16 -10 6 0 7 5 4 10 -3 6 -11 10 -16 10 -6
0 -7 -4 -4 -10z"/>
<path d="M808 1973 c7 -3 16 -2 19 1 4 3 -2 6 -13 5 -11 0 -14 -3 -6 -6z"/>
<path d="M755 1960 c-3 -6 1 -7 9 -4 18 7 21 14 7 14 -6 0 -13 -4 -16 -10z"/>
<path d="M1560 1954 c0 -9 5 -14 12 -12 18 6 21 28 4 28 -9 0 -16 -7 -16 -16z"/>
<path d="M1466 1951 c-8 -12 19 -22 30 -11 5 5 20 10 34 13 16 3 10 5 -17 6
-23 0 -44 -3 -47 -8z"/>
<path d="M1385 1934 c-40 -14 -40 -14 -5 -9 19 3 39 10 44 15 12 12 11 12 -39
-6z"/>
<path d="M2548 1933 c7 -3 16 -2 19 1 4 3 -2 6 -13 5 -11 0 -14 -3 -6 -6z"/>
<path d="M1276 1911 c-13 -5 -16 -10 -8 -15 11 -6 52 9 52 19 0 7 -22 5 -44
-4z"/>
<path d="M1217 1889 c-9 -5 -22 -7 -28 -3 -6 3 -17 -3 -25 -15 -12 -16 -27
-21 -62 -22 l-47 -1 45 -11 c25 -6 48 -14 51 -19 10 -16 296 0 330 18 17 8 37
13 45 10 7 -3 16 -1 19 4 3 5 -18 9 -50 8 -43 -1 -55 -5 -55 -17 0 -12 -2 -13
-9 -3 -9 15 -131 13 -144 -3 -6 -7 -10 -6 -13 1 -4 9 -13 9 -34 1 -16 -6 -33
-8 -37 -4 -12 12 12 42 36 45 12 2 19 8 16 13 -8 11 -15 11 -38 -2z m-31 -36
c-10 -10 -19 5 -10 18 6 11 8 11 12 0 2 -7 1 -15 -2 -18z"/>
<path d="M1651 1883 c5 -29 -2 -45 -18 -38 -10 3 -31 9 -48 11 -17 3 -6 -4 25
-15 30 -12 56 -21 57 -21 8 0 2 60 -7 65 -6 4 -10 3 -9 -2z"/>
<path d="M2995 1880 c3 -5 8 -10 11 -10 2 0 4 5 4 10 0 6 -5 10 -11 10 -5 0
-7 -4 -4 -10z"/>
<path d="M966 1844 c-3 -7 9 -11 34 -10 54 2 60 13 11 18 -25 2 -42 -1 -45 -8z"/>
<path d="M2308 1853 c7 -3 16 -2 19 1 4 3 -2 6 -13 5 -11 0 -14 -3 -6 -6z"/>
<path d="M702 1820 c0 -14 2 -19 5 -12 2 6 2 18 0 25 -3 6 -5 1 -5 -13z"/>
<path d="M741 1824 c0 -11 3 -14 6 -6 3 7 2 16 -1 19 -3 4 -6 -2 -5 -13z"/>
<path d="M1260 1786 c0 -9 72 -26 205 -48 105 -16 190 -21 445 -25 173 -2 342
0 375 5 49 8 19 10 -155 12 -118 1 -237 1 -265 1 -89 -1 -139 0 -190 4 -27 2
-56 4 -62 4 -26 2 -12 18 25 29 29 8 31 10 7 7 -67 -10 -195 -6 -337 11 -27 3
-48 3 -48 0z"/>
<path d="M1760 1780 c-10 -7 10 -8 65 -4 44 4 82 8 84 10 10 9 -136 3 -149 -6z"/>
<path d="M2543 1733 c9 -2 23 -2 30 0 6 3 -1 5 -18 5 -16 0 -22 -2 -12 -5z"/>
<path d="M2348 1703 c6 -2 18 -2 25 0 6 3 1 5 -13 5 -14 0 -19 -2 -12 -5z"/>
<path d="M848 1663 c6 -2 18 -2 25 0 6 3 1 5 -13 5 -14 0 -19 -2 -12 -5z"/>
<path d="M945 1645 c28 -8 68 -17 90 -20 22 -3 81 -12 130 -20 50 -8 117 -16
150 -19 281 -25 1108 -29 1240 -7 22 4 -147 5 -375 3 -522 -5 -815 12 -1249
73 -27 4 -24 1 14 -10z"/>
</g>
</svg>
